<?xml version="1.0" encoding="UTF-8"?>
<svg id="Layer_2" data-name="Layer 2" xmlns="http://www.w3.org/2000/svg" viewBox="0 0 600 132.38">
  <defs>
    <style>
      .cls-1 {
        fill: #e90;
      }
    </style>
  </defs>
  <text/>
  <g>
    <polygon class="cls-1" points="58.96 61.71 58.96 16.27 267.66 16.27 267.66 0 299.38 31.72 267.66 64.81 267.66 45.44 88.13 45.44 88.13 131.72 59.57 131.72 31.94 86.28 31.94 131.72 0 131.72 0 16.27 32.55 16.27 58.96 61.71"/>
    <path class="cls-1" d="M440.02,50.66h-83.52v81.07l164.9.66-.31-52.25h-51.59v-7.37h51.59v-22.11h-76.15v54.04l46.12.1v6.89h-107.56l.02-7h56.5v-54.04ZM383.52,77.68h27.02v14.74h-27.02v-14.74Z"/>
    <path class="cls-1" d="M351.59,16.27v115.46h-83.52l-.4-61.39,37.23-38.61-15.17-15.17,61.86-.28ZM297.54,97.33h14.74l-.49-46.31h-13.79l-.46,46.31Z"/>
    <path class="cls-1" d="M175.49,50.66v81.07h-80.76V50.66h80.76ZM149.07,77.22h-27.58v33.1h27.58v-33.1Z"/>
    <polyline class="cls-1" points="182.09 131.72 263.77 131.72 263.15 80.14 211.56 80.14 211.56 72.77 263.15 72.77 263.15 50.66 182.09 50.66 182.09 104.7 233.67 104.7 233.67 109.61 182.09 109.61 182.09 131.72"/>
    <polygon class="cls-1" points="600 49.64 573.8 49.64 551.95 81.36 551.95 16.27 524.92 16.27 525.53 132.38 551.74 132.38 551.74 100.67 572.21 131.72 598.62 131.72 576.72 90.79 600 49.64"/>
  </g>
</svg>