<?xml version="1.0" encoding="UTF-8"?>
<svg id="Layer_2" data-name="Layer 2" xmlns="http://www.w3.org/2000/svg" viewBox="0 0 445.01 81.11">
  <defs>
    <style>
      .cls-1 {
        fill: #e90;
      }
    </style>
  </defs>
  <g>
    <path class="cls-1" d="M48.16,1.34h22.06v78.4l-20.58-.34-27.58-36.29v36.62H0V1.34l20.64.06,27.52,38.69V1.34Z"/>
    <path class="cls-1" d="M67.99,40.54C67.99,17.25,86.36,0,110.1,0s42.34,17.02,42.34,40.54-18.48,40.54-42.34,40.54-42.11-17.14-42.11-40.54ZM129.93,40.54c0-11.98-8.51-20.72-19.82-20.72s-19.6,8.85-19.6,20.72,8.06,20.72,19.6,20.72,19.82-8.85,19.82-20.72Z"/>
    <path class="cls-1" d="M143.64,74.41c3-3,9-11,10-16,6,3,10.5,4,18,4,5.26,0,9.36-1.37,9.36-5.62,0-2.58-1.57-4.48-4.48-5.6l-13.55-5.04c-10.08-3.58-15.57-11.87-15.57-21.95,0-14,11.09-24.19,28.67-24.19,7.73,0,13.56.41,20.56,2.41v19c-6-2-14.07-3.6-20.01-3.6-6.27,0-8.06,2.8-8.06,5.71,0,2.35,1.46,4.7,5.38,6.27l12.88,4.93c9.63,3.25,16.13,11.65,16.13,22.06,0,14.67-13.22,23.93-29.46,24.3-13.86.32-23.86-2.68-29.86-6.68Z"/>
    <path class="cls-1" d="M232.15,1.34c24.19,0,40.1,15.68,40.1,39.2s-16.24,39.2-40.1,39.2h-29.98V1.34h29.98ZM231.14,60.7c11.31,0,18.59-8.18,18.59-20.16s-7.5-20.16-18.59-20.16h-6.91v40.32h6.91Z"/>
  </g>
  <path class="cls-1" d="M345.64,18.22c2.81-.13,5.28.05,9.98,1.05,2.55.54,5.98,1.36,10.03,2.55V2.82c-7-2-15.27-2.41-23-2.41-1.32,0-2.58.06-3.8.17-2.19.17-4.43.52-6.68,1.28-5.31,1.65-9.23,4.64-11.8,8.61V1.34h-50.24v78.4h50.24l25.28-.34c14.43,0,24.53-6.58,26.6-18.35l.19,18.69h22.06v-32.59l24.08,32.59h26.43v-2.02l-25.98-33.71c13.66-8.51,21.39-28,21.39-42.67h-22.4c0,13.78-10.97,33.15-23.52,37.18V1.34l-22.85.06.51,50.39c-1.71-8.15-7.9-14.33-16.05-17.07l-12.88-4.93c-3.29-1.24-5.43-3.75-5.38-6.27.03-1.37.71-2.38.88-2.63.92-1.48,2.92-2.48,6.92-2.67ZM316.68,24.41c-.04,1.91.1,7.7,4.12,13.36,4.09,5.76,9.63,7.79,11.44,8.37l13.55,5.04c2.91,1.12,4.85,2.65,4.85,5.22,0,4.26-5,4-8,4l-22.28.29h-29.18v-11.87l24.47-.11v-15.79h-24.47v-12.54h25.71c-.07,1.34-.14,2.68-.21,4.02Z"/>
</svg>