<?xml version="1.0" encoding="UTF-8"?>
<svg id="Layer_1" data-name="Layer 1" xmlns="http://www.w3.org/2000/svg" viewBox="0 0 455.61 126.86">
  <defs>
    <style>
      .cls-1 {
        fill: #fff;
      }
    </style>
  </defs>
  <path class="cls-1" d="M446.68,50.49v-19.07h-18.03v19.07h-4.9c-5.99-28.82-31.57-50.49-62.23-50.49H0v126.86h361.52c30.93,0,56.7-22.06,62.38-51.28h4.75v19.07h18.03v-19.07h8.93v-25.09h-8.93ZM68.56,100.93h-17.66l-17.08-28.09v28.09H14.09V29.57h20.12l16.32,28.09v-28.09h129v-10.05l19.6,19.6-19.6,20.46v-11.97h-110.96v53.32ZM122.56,100.93h-49.92v-50.1h49.92v50.1ZM126.63,100.93v-13.67h31.88v-3.03h-31.88v-33.41h50.1v13.67h-31.89v4.56h31.89l.38,31.88h-50.48ZM231.39,100.93h-51.62l-.25-37.94,23.01-23.87-9.38-9.38,38.23-.17h0v71.36ZM234.43,100.93v-50.1h51.62v33.4h-34.92l-.02,4.32h66.48v-4.26l-28.5-.06v-33.4h47.07v13.67h-31.88v4.56h31.88l.19,32.29-101.92-.41ZM384.08,100.93h-16.33l-12.66-19.19v19.6h-16.19l-.38-71.77h16.7v40.23l13.51-19.2h16.19l-14.39,25.43,13.54,25.3Z"/>
  <rect class="cls-1" x="251.14" y="67.53" width="16.7" height="9.11"/>
  <polygon class="cls-1" points="198.27 51.06 197.98 79.68 197.99 79.68 207.1 79.68 206.79 51.06 198.27 51.06"/>
  <rect class="cls-1" x="89.18" y="67.25" width="17.04" height="20.46"/>
</svg>